<svg width="18" height="14" viewBox="0 0 18 14" fill="none" xmlns="http://www.w3.org/2000/svg">
<g clip-path="url(#clip0_324_169)">
<path d="M16.4293 3.05181C14.9714 4.42308 13.6182 5.69511 12.2288 7.00143C13.6362 8.32398 14.9912 9.59421 16.4293 10.9438V3.05181ZM1.58166 10.9366C3.01969 9.58519 4.37291 8.31496 5.77305 6.99962C4.37291 5.68609 3.01969 4.41406 1.58166 3.06264V10.9366ZM2.67867 11.9669H15.3232C13.878 10.6082 12.5175 9.33439 11.1318 8.03349C10.6212 8.51163 10.1467 8.96271 9.66493 9.40476C9.14529 9.8829 8.8548 9.8811 8.33155 9.40115C7.83898 8.94827 7.35362 8.48998 6.86466 8.03349C5.4555 9.35785 4.10949 10.6227 2.67867 11.9669ZM9.00095 7.97395C11.1084 5.99102 13.1797 4.04418 15.316 2.03599H2.68048C4.82579 4.05139 6.8827 5.9838 9.00095 7.97395ZM8.98471 13.4987C6.57958 13.4987 4.17444 13.5023 1.77111 13.4987C0.610943 13.4951 0.0534133 12.934 0.0498047 11.7702C0.0498047 8.58921 0.0498047 5.40823 0.0498047 2.22905C0.0534133 1.06527 0.610943 0.504134 1.77291 0.50233C6.60123 0.500525 11.4313 0.500525 16.2597 0.50233C17.3801 0.50233 17.9467 1.0761 17.9485 2.20018C17.9521 5.40101 17.9521 8.60184 17.9485 11.8009C17.9485 12.925 17.3801 13.4951 16.2579 13.4969C13.8347 13.5023 11.4097 13.4987 8.98471 13.4987Z" fill="white"/>
</g>
<defs>
<clipPath id="clip0_324_169">
<rect width="17.9005" height="13" fill="white" transform="translate(0.0498047 0.5)"/>
</clipPath>
</defs>
</svg>
